<svg width="53" height="53" viewBox="0 0 53 53" fill="none" xmlns="http://www.w3.org/2000/svg">
<mask id="path-1-inside-1_9_63" fill="white">
<path d="M32 0C43.598 0 53 9.40202 53 21V32C53 42.9234 44.6598 51.8971 34 52.9043V41L32.1602 38.8975C38.8327 38.0791 44 32.3937 44 25.5C43.9999 21.911 42.5989 18.6495 40.3145 16.2314C40.3168 16.185 40.3167 16.1372 40.3125 16.0889L39.7842 10.0498C39.7168 9.28317 38.8453 8.8769 38.2148 9.31836L33.8008 12.4072C32.7444 12.1418 31.6387 12 30.5 12H23.5C22.8877 12 22.285 12.0412 21.6943 12.1201C21.6228 11.9918 21.5221 11.8745 21.3877 11.7822L16.3916 8.34961C15.7572 7.91378 14.8885 8.32842 14.8281 9.0957L14.3535 15.1396C14.3427 15.2781 14.3603 15.4092 14.3994 15.5293C11.6962 17.9979 10.0001 21.5508 10 25.5C10 32.3933 15.1668 38.0787 21.8389 38.8975L20 41V45.4883C19.9413 45.4853 19.882 45.484 19.8223 45.4805C18.3009 45.3913 16.683 45.1494 15.6553 44.6504C14.636 44.1554 13.5524 43.1083 12.6611 42.0537C12.2327 41.5467 11.8787 41.0747 11.6328 40.7305C11.5103 40.559 11.4153 40.4197 11.3525 40.3262C11.3214 40.2797 11.298 40.2443 11.2832 40.2217C11.2759 40.2105 11.2706 40.202 11.2676 40.1973C11.2664 40.1954 11.2651 40.1941 11.2646 40.1934L8.73535 41.8066V41.8076L8.73633 41.8086C8.73696 41.8096 8.73833 41.8111 8.73926 41.8125C8.7411 41.8154 8.7432 41.8197 8.74609 41.8242C8.75214 41.8336 8.76102 41.8463 8.77148 41.8623C8.79273 41.8948 8.82275 41.9416 8.86133 41.999C8.93856 42.1141 9.05049 42.2763 9.19141 42.4736C9.47269 42.8675 9.8771 43.4069 10.3701 43.9902C11.3222 45.1167 12.7384 46.5696 14.3447 47.3496C15.9429 48.1256 18.0754 48.3835 19.6475 48.4756C19.767 48.4826 19.8847 48.4869 20 48.4922V52.9756C8.86639 52.4536 0 43.2627 0 32V21C0 9.40202 9.40202 0 21 0H32Z"/>
</mask>
<path d="M34 52.9043H32V55.1022L34.1881 54.8954L34 52.9043ZM34 41H36V40.2485L35.5051 39.6829L34 41ZM32.1602 38.8975L31.9167 36.9123L28.1678 37.3721L30.655 40.2145L32.1602 38.8975ZM44 25.5L46 25.5V25.5L44 25.5ZM40.3145 16.2314L38.317 16.1313L38.2742 16.9842L38.8606 17.6049L40.3145 16.2314ZM40.3125 16.0889L42.3049 15.9147L42.3049 15.9146L40.3125 16.0889ZM39.7842 10.0498L41.7766 9.8755L41.7765 9.87481L39.7842 10.0498ZM38.2148 9.31836L39.3615 10.957L39.362 10.9567L38.2148 9.31836ZM33.8008 12.4072L33.3133 14.3469L34.1991 14.5695L34.9475 14.0459L33.8008 12.4072ZM30.5 12V10V10V12ZM21.6943 12.1201L19.9476 13.0943L20.6105 14.2828L21.9593 14.1025L21.6943 12.1201ZM21.3877 11.7822L20.2551 13.4306L20.2552 13.4307L21.3877 11.7822ZM16.3916 8.34961L17.5242 6.70119L17.524 6.7011L16.3916 8.34961ZM14.8281 9.0957L12.8343 8.93876L12.8343 8.93913L14.8281 9.0957ZM14.3535 15.1396L12.3597 14.9831L12.3596 14.9835L14.3535 15.1396ZM14.3994 15.5293L15.7481 17.0061L16.7004 16.1365L16.3012 14.9102L14.3994 15.5293ZM10 25.5L8 25.5V25.5L10 25.5ZM21.8389 38.8975L23.3443 40.2141L25.8298 37.3722L22.0825 36.9124L21.8389 38.8975ZM20 41L18.4945 39.6833L18 40.2488V41H20ZM20 45.4883L19.8973 47.4856L22 47.5938V45.4883H20ZM19.8223 45.4805L19.7053 47.477L19.7053 47.477L19.8223 45.4805ZM15.6553 44.6504L14.7816 46.4495L14.7817 46.4495L15.6553 44.6504ZM12.6611 42.0537L11.1336 43.3447L11.1336 43.3447L12.6611 42.0537ZM11.6328 40.7305L10.0052 41.8927L10.0052 41.8928L11.6328 40.7305ZM11.3525 40.3262L9.69194 41.4408L9.69199 41.4409L11.3525 40.3262ZM11.2832 40.2217L9.60868 41.3153L9.60894 41.3157L11.2832 40.2217ZM11.2676 40.1973L12.9483 39.1133L12.9429 39.1049L12.9374 39.0965L11.2676 40.1973ZM11.2646 40.1934L12.9355 39.0941L11.8516 37.4468L10.1891 38.5072L11.2646 40.1934ZM8.73535 41.8066L7.65983 40.1204L6.73535 40.7101V41.8066H8.73535ZM8.73535 41.8076H6.73535V42.636L7.32114 43.2218L8.73535 41.8076ZM8.73633 41.8086L10.4146 40.7207L10.2998 40.5436L10.1505 40.3944L8.73633 41.8086ZM8.73926 41.8125L10.4242 40.735L10.4141 40.7193L10.4038 40.7037L8.73926 41.8125ZM8.74609 41.8242L7.06206 42.9031L7.06564 42.9087L8.74609 41.8242ZM8.77148 41.8623L10.4458 40.7684L10.4456 40.7681L8.77148 41.8623ZM8.86133 41.999L7.20073 43.1137L7.20079 43.1138L8.86133 41.999ZM9.19141 42.4736L7.56378 43.6359L7.5638 43.6359L9.19141 42.4736ZM10.3701 43.9902L8.84259 45.2812L8.84263 45.2813L10.3701 43.9902ZM14.3447 47.3496L13.4711 49.1487L13.4712 49.1487L14.3447 47.3496ZM19.6475 48.4756L19.5305 50.4722H19.5305L19.6475 48.4756ZM20 48.4922H22V46.5815L20.0913 46.4943L20 48.4922ZM20 52.9756L19.9063 54.9734L22 55.0715V52.9756H20ZM32 0V2C42.4934 2 51 10.5066 51 21H53H55C55 8.29745 44.7025 -2 32 -2V0ZM53 21H51V32H53H55V21H53ZM53 32H51C51 41.8817 43.4545 50.0021 33.8119 50.9132L34 52.9043L34.1881 54.8954C45.865 53.7921 55 43.965 55 32H53ZM34 52.9043H36V41H34H32V52.9043H34ZM34 41L35.5051 39.6829L33.6653 37.5804L32.1602 38.8975L30.655 40.2145L32.4949 42.3171L34 41ZM32.1602 38.8975L32.4036 40.8826C40.0664 39.9428 46 33.4168 46 25.5L44 25.5L42 25.5C42 31.3706 37.5989 36.2154 31.9167 36.9123L32.1602 38.8975ZM44 25.5L46 25.5C45.9999 21.3799 44.3893 17.6323 41.7683 14.858L40.3145 16.2314L38.8606 17.6049C40.8085 19.6667 41.9999 22.442 42 25.5L44 25.5ZM40.3145 16.2314L42.3119 16.3316C42.3177 16.2163 42.3189 16.0743 42.3049 15.9147L40.3125 16.0889L38.3201 16.2631C38.3146 16.2001 38.3158 16.1537 38.317 16.1313L40.3145 16.2314ZM40.3125 16.0889L42.3049 15.9146L41.7766 9.8755L39.7842 10.0498L37.7918 10.2241L38.3201 16.2632L40.3125 16.0889ZM39.7842 10.0498L41.7765 9.87481C41.5745 7.57483 38.9591 6.35568 37.0677 7.68004L38.2148 9.31836L39.362 10.9567C38.7315 11.3981 37.8592 10.9915 37.7919 10.2248L39.7842 10.0498ZM38.2148 9.31836L37.0682 7.67973L32.6541 10.7686L33.8008 12.4072L34.9475 14.0459L39.3615 10.957L38.2148 9.31836ZM33.8008 12.4072L34.2882 10.4675C33.0747 10.1626 31.8053 10 30.5 10V12V14C31.4721 14 32.4141 14.1209 33.3133 14.3469L33.8008 12.4072ZM30.5 12V10H23.5V12V14H30.5V12ZM23.5 12V10C22.798 10 22.1067 10.0472 21.4294 10.1377L21.6943 12.1201L21.9593 14.1025C22.4633 14.0351 22.9775 14 23.5 14V12ZM21.6943 12.1201L23.441 11.1459C23.2313 10.7699 22.9279 10.4139 22.5202 10.1337L21.3877 11.7822L20.2552 13.4307C20.1162 13.3352 20.0142 13.2137 19.9476 13.0943L21.6943 12.1201ZM21.3877 11.7822L22.5203 10.1338L17.5242 6.70119L16.3916 8.34961L15.259 9.99803L20.2551 13.4306L21.3877 11.7822ZM16.3916 8.34961L17.524 6.7011C15.6202 5.39328 13.0154 6.63748 12.8343 8.93876L14.8281 9.0957L16.822 9.25264C16.7616 10.0194 15.8941 10.4343 15.2592 9.99812L16.3916 8.34961ZM14.8281 9.0957L12.8343 8.93913L12.3597 14.9831L14.3535 15.1396L16.3474 15.2962L16.822 9.25227L14.8281 9.0957ZM14.3535 15.1396L12.3596 14.9835C12.3276 15.3923 12.3799 15.7866 12.4976 16.1484L14.3994 15.5293L16.3012 14.9102C16.3408 15.0318 16.3577 15.1638 16.3474 15.2958L14.3535 15.1396ZM14.3994 15.5293L13.0507 14.0525C9.95021 16.8839 8.00009 20.9655 8 25.5L10 25.5L12 25.5C12.0001 22.1361 13.4423 19.1119 15.7481 17.0061L14.3994 15.5293ZM10 25.5L8 25.5C8.00003 33.4164 13.933 39.9423 21.5953 40.8826L21.8389 38.8975L22.0825 36.9124C16.4007 36.2151 12 31.3703 12 25.5L10 25.5ZM21.8389 38.8975L20.3334 37.5808L18.4945 39.6833L20 41L21.5055 42.3167L23.3443 40.2141L21.8389 38.8975ZM20 41H18V45.4883H20H22V41H20ZM20 45.4883L20.1027 43.4909C19.9023 43.4806 20.0526 43.4905 19.9392 43.4839L19.8223 45.4805L19.7053 47.477C19.7572 47.4801 19.8048 47.4819 19.8347 47.4831C19.8705 47.4845 19.8841 47.485 19.8973 47.4856L20 45.4883ZM19.8223 45.4805L19.9393 43.4839C18.4499 43.3966 17.1756 43.1653 16.5288 42.8513L15.6553 44.6504L14.7817 46.4495C16.1904 47.1335 18.1519 47.386 19.7053 47.477L19.8223 45.4805ZM15.6553 44.6504L16.5289 42.8513C15.9016 42.5467 15.0402 41.7702 14.1886 40.7627L12.6611 42.0537L11.1336 43.3447C12.0647 44.4463 13.3704 45.7642 14.7816 46.4495L15.6553 44.6504ZM12.6611 42.0537L14.1887 40.7627C13.8029 40.3063 13.4824 39.8791 13.2604 39.5682L11.6328 40.7305L10.0052 41.8928C10.2749 42.2704 10.6624 42.7871 11.1336 43.3447L12.6611 42.0537ZM11.6328 40.7305L13.2604 39.5682C13.1512 39.4152 13.0673 39.2922 13.0131 39.2115L11.3525 40.3262L9.69199 41.4409C9.7634 41.5473 9.86948 41.7027 10.0052 41.8927L11.6328 40.7305ZM11.3525 40.3262L13.0131 39.2115C12.9862 39.1714 12.9674 39.1428 12.9575 39.1277L11.2832 40.2217L9.60894 41.3157C9.62855 41.3457 9.65652 41.388 9.69194 41.4408L11.3525 40.3262ZM11.2832 40.2217L12.9577 39.1281C12.9605 39.1323 12.9624 39.1352 12.9623 39.1351C12.9622 39.135 12.962 39.1347 12.9616 39.1341C12.9614 39.1338 12.9603 39.1321 12.9597 39.131C12.9588 39.1296 12.9574 39.1274 12.9557 39.1247C12.954 39.1221 12.9514 39.1181 12.9483 39.1133L11.2676 40.1973L9.58682 41.2813C9.58446 41.2776 9.58271 41.2749 9.58196 41.2737C9.58117 41.2724 9.58069 41.2717 9.58088 41.272C9.58122 41.2725 9.58123 41.2725 9.58224 41.2741C9.58299 41.2753 9.58407 41.277 9.58531 41.279C9.59045 41.2871 9.5986 41.2999 9.60868 41.3153L11.2832 40.2217ZM11.2676 40.1973L12.9374 39.0965C12.9125 39.0588 12.8899 39.0271 12.8718 39.0028C12.8539 38.9787 12.8391 38.96 12.8318 38.9508C12.8286 38.9467 12.8255 38.943 12.8263 38.944C12.8263 38.944 12.8274 38.9453 12.8287 38.9469C12.8301 38.9487 12.8325 38.9517 12.8355 38.9555C12.8385 38.9593 12.8428 38.9647 12.8478 38.9712C12.8528 38.9777 12.8594 38.9863 12.867 38.9966C12.8746 39.0067 12.8843 39.0198 12.8953 39.0353C12.9062 39.0507 12.92 39.0706 12.9355 39.0941L11.2646 40.1934L9.59384 41.2926C9.60938 41.3162 9.62323 41.3362 9.63422 41.3517C9.64529 41.3673 9.65503 41.3805 9.66269 41.3908C9.6704 41.4011 9.67707 41.4098 9.68218 41.4164C9.68731 41.4231 9.69164 41.4286 9.69474 41.4325C9.69785 41.4364 9.70037 41.4396 9.70186 41.4415C9.7033 41.4433 9.70447 41.4447 9.7046 41.4449C9.70563 41.4462 9.70284 41.4427 9.69984 41.4389C9.69307 41.4304 9.6789 41.4125 9.66158 41.3892C9.64408 41.3656 9.62203 41.3349 9.59772 41.298L11.2676 40.1973ZM11.2646 40.1934L10.1891 38.5072L7.65983 40.1204L8.73535 41.8066L9.81087 43.4928L12.3402 41.8796L11.2646 40.1934ZM8.73535 41.8066H6.73535V41.8076H8.73535H10.7354V41.8066H8.73535ZM8.73535 41.8076L7.32114 43.2218L7.32211 43.2228L8.73633 41.8086L10.1505 40.3944L10.1496 40.3934L8.73535 41.8076ZM8.73633 41.8086L7.05809 42.8965C7.07009 42.915 7.081 42.9312 7.09027 42.9446C7.09958 42.9581 7.10799 42.9699 7.11511 42.9798C7.12901 42.999 7.14068 43.0145 7.14809 43.0242C7.15561 43.034 7.16166 43.0417 7.16447 43.0453C7.166 43.0472 7.16721 43.0488 7.16775 43.0495C7.16803 43.0498 7.16826 43.0501 7.1683 43.0502C7.16841 43.0503 7.16829 43.0501 7.16817 43.05C7.16783 43.0496 7.16483 43.0458 7.16104 43.0409C7.1571 43.0359 7.15098 43.028 7.14358 43.0182C7.13619 43.0084 7.12647 42.9954 7.11529 42.9798C7.10416 42.9644 7.09027 42.9446 7.07474 42.9213L8.73926 41.8125L10.4038 40.7037C10.388 40.6801 10.3739 40.6599 10.3625 40.6441C10.3511 40.6282 10.3411 40.6148 10.3334 40.6047C10.3257 40.5946 10.3194 40.5863 10.3151 40.5809C10.3111 40.5757 10.3078 40.5716 10.3072 40.5708C10.307 40.5706 10.3068 40.5703 10.3069 40.5704C10.3069 40.5704 10.3069 40.5704 10.3069 40.5704C10.3069 40.5704 10.3069 40.5704 10.3069 40.5704C10.3069 40.5704 10.3069 40.5704 10.307 40.5705C10.307 40.5705 10.3071 40.5707 10.3072 40.5708C10.3076 40.5713 10.3087 40.5727 10.3101 40.5745C10.3127 40.5777 10.3185 40.5851 10.3258 40.5947C10.3296 40.5996 10.3342 40.6058 10.3395 40.6128C10.3447 40.6199 10.351 40.6284 10.3581 40.6382C10.3651 40.6479 10.3734 40.6596 10.3826 40.673C10.3918 40.6863 10.4026 40.7023 10.4146 40.7207L8.73633 41.8086ZM8.73926 41.8125L7.0543 42.89C7.04021 42.8679 7.02886 42.8492 7.02081 42.8357C7.01271 42.822 7.00633 42.8109 7.00237 42.804C6.99844 42.797 6.99547 42.7917 6.9946 42.7902C6.99412 42.7893 6.99375 42.7886 6.99391 42.7889C6.99392 42.7889 6.99448 42.79 6.99508 42.791C6.99633 42.7933 6.99904 42.7981 7.00247 42.8042C7.00596 42.8104 7.01061 42.8185 7.01615 42.828C7.02716 42.8469 7.04267 42.8729 7.06207 42.9031L8.74609 41.8242L10.4301 40.7453C10.4481 40.7733 10.4622 40.797 10.472 40.8137C10.4769 40.8222 10.4809 40.8293 10.4838 40.8344C10.4867 40.8394 10.4888 40.8432 10.4895 40.8445C10.4898 40.845 10.4901 40.8456 10.4898 40.8451C10.4897 40.8449 10.4891 40.8437 10.4883 40.8424C10.4869 40.8399 10.4835 40.8337 10.479 40.8259C10.4746 40.818 10.4677 40.8061 10.4591 40.7916C10.4506 40.7773 10.4388 40.7578 10.4242 40.735L8.73926 41.8125ZM8.74609 41.8242L7.06564 42.9087C7.07575 42.9244 7.08434 42.9372 7.08897 42.9442C7.09347 42.9509 7.09811 42.9578 7.09921 42.9594C7.1032 42.9653 7.10087 42.9619 7.09739 42.9566L8.77148 41.8623L10.4456 40.7681C10.4316 40.7467 10.4196 40.7289 10.4151 40.7222C10.4119 40.7174 10.4125 40.7184 10.4133 40.7196C10.4142 40.721 10.4195 40.7288 10.4265 40.7397L8.74609 41.8242ZM8.77148 41.8623L7.09719 42.9563C7.10941 42.975 7.15294 43.0425 7.20073 43.1137L8.86133 41.999L10.5219 40.8844C10.4926 40.8406 10.476 40.8147 10.4458 40.7684L8.77148 41.8623ZM8.86133 41.999L7.20079 43.1138C7.2903 43.2471 7.41339 43.4253 7.56378 43.6359L9.19141 42.4736L10.819 41.3114C10.6876 41.1273 10.5868 40.981 10.5219 40.8843L8.86133 41.999ZM9.19141 42.4736L7.5638 43.6359C7.86894 44.0632 8.30683 44.6473 8.84259 45.2812L10.3701 43.9902L11.8976 42.6992C11.4474 42.1665 11.0764 41.6718 10.819 41.3114L9.19141 42.4736ZM10.3701 43.9902L8.84263 45.2813C9.83567 46.4562 11.4736 48.1788 13.4711 49.1487L14.3447 47.3496L15.2183 45.5505C14.0031 44.9604 12.8088 43.7773 11.8976 42.6992L10.3701 43.9902ZM14.3447 47.3496L13.4712 49.1487C15.449 50.1091 17.9235 50.378 19.5305 50.4722L19.6475 48.4756L19.7644 46.479C18.2273 46.389 16.4367 46.1421 15.2183 45.5505L14.3447 47.3496ZM19.6475 48.4756L19.5305 50.4722C19.6668 50.4801 19.8171 50.4859 19.9087 50.4901L20 48.4922L20.0913 46.4943C19.9522 46.4879 19.8671 46.485 19.7644 46.479L19.6475 48.4756ZM20 48.4922H18V52.9756H20H22V48.4922H20ZM20 52.9756L20.0937 50.9778C10.0219 50.5056 2 42.1894 2 32H0H-2C-2 44.3361 7.71092 54.4016 19.9063 54.9734L20 52.9756ZM0 32H2V21H0H-2V32H0ZM0 21H2C2 10.5066 10.5066 2 21 2V0V-2C8.29745 -2 -2 8.29745 -2 21H0ZM21 0V2H32V0V-2H21V0Z" fill="#BCBDF9" mask="url(#path-1-inside-1_9_63)"/>
</svg>
