<svg width="121" height="214" viewBox="0 0 121 214" fill="none" xmlns="http://www.w3.org/2000/svg">
<path d="M116.097 100C118.881 100 121.155 102.246 120.993 105.002C119.005 138.762 97.053 166.018 69.0003 170.387V205.5C69.0003 210.194 65.1946 214 60.5003 214C55.8059 214 52.0003 210.194 52.0003 205.5V170.387C23.9477 166.018 1.99575 138.762 0.00816154 105.002C-0.153912 102.245 2.11948 100 4.90367 100C7.68798 100 9.92769 102.248 10.1068 105.004C12.2385 137.793 35.1478 160.999 59.9173 161C60.0653 161 60.2139 160.998 60.3617 160.996V161.003C60.4077 161.002 60.4541 161 60.5003 161C60.5467 161 60.5929 161.002 60.639 161.003V160.996C60.7869 160.998 60.9354 161 61.0834 161C85.8529 160.999 108.762 137.793 110.894 105.004C111.073 102.248 113.313 100 116.097 100ZM60.5003 0C81.2109 0.000143282 98.0003 16.7894 98.0003 37.5V112.5C98.0003 133.211 81.2109 150 60.5003 150C39.7897 150 23.0003 133.211 23.0003 112.5V37.5C23.0003 16.7893 39.7897 0 60.5003 0Z" fill="#41EFA9"/>
</svg>
